<svg width="580" height="400" xmlns="http://www.w3.org/2000/svg">
 <g>
  <title>Layer 1</title>
  <path id="svg_1" d="m472.57361,197.35318l-73.84921,26.27441l0,-52.50577l73.84921,26.23135zm-53.61536,-129.40639l-33.63708,70.81847l-37.13858,-37.15943l70.77567,-33.65904zm-129.38535,-53.57222l26.25262,73.84883l-52.50522,0l26.25259,-73.84883zm-129.38463,53.57222l70.77544,33.65904l-37.13846,37.15943l-33.63698,-70.81847zm-53.61566,129.40639l73.84911,-26.23135l0,52.50577l-73.84911,-26.27441zm53.61566,129.40662l33.63698,-70.77551l37.13846,37.13828l-70.77544,33.63724l0,0zm129.38463,53.61435l-26.25259,-73.84824l52.50522,0l-26.25262,73.84824zm129.38535,-53.61435l-70.77567,-33.63724l37.13858,-37.13828l33.63708,70.77551zm-220.86418,-129.40662l0,0c0,-50.52061 40.93703,-91.50006 91.47884,-91.50006c50.54202,0 91.52176,40.97945 91.52176,91.50006c0,50.54147 -40.97974,91.4996 -91.52176,91.4996c-50.54181,0 -91.47884,-40.95813 -91.47884,-91.4996l0,0z" stroke-width="3" stroke="#000" />
 </g>
</svg>